<svg xmlns="http://www.w3.org/2000/svg" viewBox="0 0 500 200">
  <path fill="#002060" d="M12.8,164.2c0,0-0.3-114.8,0-127.6c0.1-4.9,4.1-8.8,9-8.8c4.9,0,8.9,3.9,9,8.8c0.3,12.8,0,127.6,0,127.6H12.8z
	 M38.5,142.8c0,0,14.4-11.5,34.9-4.3c0,0,15.1-18.7,36.7-4.3c0,0,19.4-16.5,40.3-4.3c0,0,19.4-18.7,40.3-4.3
	c0,0,18-16.5,36.7-4.3c0,0,14.4-11.5,35.6-4.3v15.1c0,0-21.6-12.2-35.6,3.6c0,0-18.7-18-36.7,4.3c0,0-20.9-19.4-40.3,3.6
	c0,0-20.9-18-40.3,3.6c0,0-21.6-18-36.7,3.6c0,0-14.4-14.4-34.9,0V142.8z M38.5,167.2c0,0,14.4-11.5,34.9-4.3c0,0,15.1-18.7,36.7-4.3
	c0,0,19.4-16.5,40.3-4.3c0,0,19.4-18.7,40.3-4.3c0,0,18-16.5,36.7-4.3c0,0,14.4-11.5,35.6-4.3v15.1c0,0-21.6-12.2-35.6,3.6
	c0,0-18.7-18-36.7,4.3c0,0-20.9-19.4-40.3,3.6c0,0-20.9-18-40.3,3.6c0,0-21.6-18-36.7,3.6c0,0-14.4-14.4-34.9,0V167.2z M38.5,192.4
	c0,0,14.4-11.5,34.9-4.3c0,0,15.1-18.7,36.7-4.3c0,0,19.4-16.5,40.3-4.3c0,0,19.4-18.7,40.3-4.3c0,0,18-16.5,36.7-4.3
	c0,0,14.4-11.5,35.6-4.3v15.1H38.5V192.4z M337.3,99.1c0-21.6,17.3-38.9,38.9-38.9c21.6,0,38.9,17.3,38.9,38.9
	c0,21.6-17.3,38.9-38.9,38.9C354.6,138,337.3,120.7,337.3,99.1z M352.4,99.1c0,13.7,10.8,24.5,23.8,24.5c13,0,23.8-10.8,23.8-24.5
	c0-13.7-10.8-24.5-23.8-24.5C363.1,74.6,352.4,85.4,352.4,99.1z M426.1,138h-14.4V61.6h14.4V138z M426.1,49.4h-14.4V35.7h14.4V49.4z
	 M452.8,99.1c0,13.7,10.8,24.5,23.8,24.5c7.2,0,14.4-3.6,18-13h15.8c-5,19.4-20.9,27.4-33.8,27.4c-21.6,0-38.9-17.3-38.9-38.9
	c0-21.6,17.3-38.9,38.9-38.9c13,0,28.8,8.6,33.8,27.4h-15.8c-3.6-9.4-10.8-13-18-13C463.6,74.6,452.8,85.4,452.8,99.1z"/>
</svg>